<?xml version="1.0" encoding="UTF-8" standalone="no"?>
<svg
   xmlns:dc="http://purl.org/dc/elements/1.1/"
   xmlns:cc="http://creativecommons.org/ns#"
   xmlns:rdf="http://www.w3.org/1999/02/22-rdf-syntax-ns#"
   xmlns:svg="http://www.w3.org/2000/svg"
   xmlns="http://www.w3.org/2000/svg"
   xmlns:sodipodi="http://sodipodi.sourceforge.net/DTD/sodipodi-0.dtd"
   xmlns:inkscape="http://www.inkscape.org/namespaces/inkscape"
   viewBox="0 0 261.76 226.69"
   version="1.1"
   id="svg14"
   sodipodi:docname="logo copy.svg"
   inkscape:version="1.0.2 (e86c8708, 2021-01-15)">
  <metadata
     id="metadata20">
    <rdf:RDF>
      <cc:Work
         rdf:about="">
        <dc:format>image/svg+xml</dc:format>
        <dc:type
           rdf:resource="http://purl.org/dc/dcmitype/StillImage" />
      </cc:Work>
    </rdf:RDF>
  </metadata>
  <defs
     id="defs18">
    <inkscape:perspective
       sodipodi:type="inkscape:persp3d"
       inkscape:vp_x="-30.45471 : 73.553362 : 1"
       inkscape:vp_y="0 : 919.31479 : 0"
       inkscape:vp_z="231.30529 : 73.553362 : 1"
       inkscape:persp3d-origin="100.42529 : 38.820115 : 1"
       id="perspective22" />
  </defs>
  <sodipodi:namedview
     pagecolor="#ffffff"
     bordercolor="#666666"
     borderopacity="1"
     objecttolerance="10"
     gridtolerance="10"
     guidetolerance="10"
     inkscape:pageopacity="0"
     inkscape:pageshadow="2"
     inkscape:window-width="1440"
     inkscape:window-height="900"
     id="namedview16"
     showgrid="false"
     inkscape:zoom="2.2803502"
     inkscape:cx="114.54317"
     inkscape:cy="113.00413"
     inkscape:window-x="0"
     inkscape:window-y="0"
     inkscape:window-maximized="0"
     inkscape:current-layer="svg14" />
  <g
     id="g109"
     transform="matrix(1.294627,0,0,1.834308,-178.88567,-265.12077)">
    <path
       d="m 188.25096,166.55627 c 1.85579,1.14807 4.04776,1.82717 6.32699,1.82717 6.52135,0 11.82662,-5.30556 11.82662,-11.82662 0,-6.34625 -5.02511,-11.53916 -11.30482,-11.81348 -0.0429,-0.004 -45.38358,-0.004 -45.42647,0 -6.28,0.27403 -11.30511,5.46694 -11.30511,11.81319 0,6.52135 5.30556,11.82662 11.82662,11.82662 2.27865,0 4.46974,-0.67881 6.32523,-1.82601 0.57871,0.29796 1.52133,0.97006 2.05715,2.34081 v 67.48629 c -2.62331,0.0989 -4.72861,2.25793 -4.72861,4.90517 0,2.2159 1.47494,4.09182 3.49415,4.70292 0.15058,0.10098 0.32014,0.17539 0.50604,0.20691 0.13482,0.1897 0.37091,0.7363 0.37091,1.59372 0,0.83464 -0.22295,1.37162 -0.35924,1.57474 h -2.15112 c -2.70998,0 -4.9145,2.20481 -4.9145,4.9145 v 3.03421 c 0,0.82619 0.20691,1.60393 0.56849,2.28799 h -5.24807 c -0.72521,0 -1.31326,0.58805 -1.31326,1.31326 v 6.67018 c 0,0.72521 0.58805,1.31326 1.31326,1.31326 h 52.54288 c 0.72521,0 1.31326,-0.58805 1.31326,-1.31326 v -6.67018 c 0,-0.72521 -0.58805,-1.31326 -1.31326,-1.31326 h -5.24807 c 0.36158,-0.68406 0.56849,-1.4618 0.56849,-2.28799 v -3.03421 c 0,-2.70969 -2.20452,-4.9145 -4.9145,-4.9145 h -2.15316 c -0.13629,-0.20283 -0.35925,-0.7401 -0.35925,-1.57474 0,-0.85742 0.23609,-1.40402 0.37121,-1.59372 0.18532,-0.0315 0.35458,-0.10564 0.50488,-0.20603 2.02066,-0.61023 3.49676,-2.48732 3.49676,-4.7041 0,-2.64694 -2.10529,-4.80593 -4.7286,-4.90487 v -67.486 c 0.53581,-1.37483 1.4764,-2.04518 2.0551,-2.34197 z m -4.53628,-19.19955 c -0.34086,0.19961 -0.6864,0.40769 -1.04039,0.63182 -4.12918,2.61164 -6.41629,3.03479 -10.28748,3.03538 -3.8712,-5.9e-4 -6.1586,-0.42374 -10.28778,-3.03538 -0.35399,-0.22413 -0.69953,-0.43221 -1.04039,-0.63182 z m 13.62986,118.91816 h -49.91635 v -4.04367 h 49.91635 z m -8.28082,-14.28037 c 1.26161,0 2.28799,1.02638 2.28799,2.28798 v 3.03421 c 0,1.26161 -1.02638,2.28799 -2.28799,2.28799 h -33.35471 c -1.26161,0 -2.28799,-1.02638 -2.28799,-2.28799 v -3.03421 c 0,-1.2616 1.02638,-2.28798 2.28799,-2.28798 z m -4.95652,-2.62652 h -23.44458 c 0.11761,-0.47977 0.18298,-1.008 0.18298,-1.57474 0,-0.57229 -0.0665,-1.10547 -0.18619,-1.58934 h 23.45216 c -0.11994,0.48387 -0.18706,1.01676 -0.18706,1.58934 2.9e-4,0.56674 0.0654,1.09497 0.18269,1.57474 z m 4.19046,-8.07858 c 0,1.2616 -1.02639,2.28799 -2.28799,2.28799 h -27.2466 c -1.26161,0 -2.28799,-1.02639 -2.28799,-2.2877 0,-1.2616 1.02638,-2.28798 2.28799,-2.28798 h 27.2466 c 1.2616,0 2.28799,1.02638 2.28799,2.28769 z m -10.57844,-69.82769 c -2.05131,0 -3.72032,1.66901 -3.72032,3.72002 v 61.19375 h -3.22449 v -61.19375 c 0,-2.05101 -1.669,-3.72002 -3.72031,-3.72002 -2.05131,0 -3.72031,1.66901 -3.72031,3.72002 v 61.19375 h -2.13011 v -66.33063 h 22.36538 v 66.33034 h -2.12953 v -61.19346 c 0,-2.05131 -1.669,-3.72002 -3.72031,-3.72002 z m 1.09379,3.72002 v 61.19375 h -2.18759 v -61.19375 c 0,-0.60293 0.49057,-1.09351 1.0938,-1.09351 0.60322,0 1.09379,0.49029 1.09379,1.09351 z m -10.66511,0 v 61.19375 h -2.18759 v -61.19375 c 0,-0.60293 0.49057,-1.09351 1.09379,-1.09351 0.60323,0 1.0938,0.49029 1.0938,1.09351 z m -7.34987,-7.7634 c -0.18211,-0.38055 -0.38522,-0.72345 -0.60147,-1.03105 h 24.37932 c -0.21624,0.30788 -0.41965,0.6505 -0.60147,1.03105 z m -1.13903,-3.65757 c 0.88397,-1.13115 1.54089,-2.41405 1.88963,-3.78656 h 21.67606 c 0.34874,1.37251 1.00537,2.6557 1.88963,3.78656 z m 25.95261,-5.25974 c 0,-6.4e-4 -3e-4,-10e-4 -3e-4,-0.003 0,-6.3e-4 0,-0.002 0,-0.003 -0.25243,-1.99235 0.82823,-4.38599 1.95589,-5.28805 2.26784,-1.81405 5.37881,-1.66463 7.39772,0.3537 1.4764,1.47669 1.4764,3.87849 0,5.35518 -1.07833,1.07833 -2.83371,1.07833 -3.91204,0 -0.76053,-0.76052 -0.76053,-1.9982 0,-2.75872 0.50575,-0.50546 1.3293,-0.50546 1.83505,0 0.51305,0.51304 1.34449,0.51304 1.85724,0 0.51276,-0.51275 0.51276,-1.34419 0,-1.85695 -1.53009,-1.53038 -4.01945,-1.53038 -5.54983,0 -1.78457,1.78457 -1.78457,4.68834 0,6.47291 1.01851,1.01851 2.37291,1.57941 3.81342,1.57941 1.44049,0 2.7949,-0.5609 3.8134,-1.57941 2.50045,-2.50016 2.50045,-6.56892 -2.9e-4,-9.06936 -2.98226,-2.98168 -7.56466,-3.21194 -10.89566,-0.54748 -1.6337,1.30712 -2.78966,3.82537 -2.95367,6.19098 H 161.7999 c -0.1643,-2.3659 -1.32026,-4.88415 -2.95396,-6.19098 -3.331,-2.66505 -7.9131,-2.4345 -10.89566,0.54777 -2.50044,2.50015 -2.50044,6.56891 0,9.06907 1.0185,1.01851 2.37291,1.57941 3.81341,1.57941 1.4405,0 2.79491,-0.5609 3.81341,-1.57941 1.78457,-1.78457 1.78457,-4.68804 0,-6.47291 -1.53009,-1.53038 -4.01944,-1.53038 -5.54983,0 -0.51275,0.51276 -0.51275,1.34449 0,1.85695 0.51305,0.51304 1.34449,0.51304 1.85724,0 0.50575,-0.50546 1.32931,-0.50546 1.83506,0 0.76052,0.76082 0.76052,1.9982 0,2.75872 -1.07833,1.07833 -2.83372,1.07833 -3.91205,0 -1.47639,-1.47669 -1.47639,-3.87849 0,-5.35489 2.01921,-2.0192 5.13046,-2.16804 7.39773,-0.35429 1.12765,0.90207 2.20832,3.296 1.95646,5.28864 -2.9e-4,6.4e-4 0,0.002 -2.9e-4,0.003 0,6.4e-4 -2.9e-4,0.001 -2.9e-4,0.003 -0.48241,3.93336 -4.58882,7.2559 -8.96664,7.2559 -5.07297,0 -9.2001,-4.12742 -9.2001,-9.2001 0,-5.06918 4.1213,-9.19369 9.18901,-9.19982 h 2.88013 c 2.2979,0.0878 4.65214,0.96744 7.6309,2.85123 4.62121,2.92331 7.4523,3.44074 11.68216,3.44249 h 0.0192 c 4.22986,-0.002 7.06095,-0.51918 11.68216,-3.44249 2.97818,-1.88408 5.33241,-2.76367 7.63032,-2.85123 h 2.88013 c 5.06771,0.006 9.18901,4.13064 9.18901,9.19982 0,5.07297 -4.12714,9.2001 -9.2001,9.2001 -4.37724,0 -8.48336,-3.32283 -8.96577,-7.2559 z"
       id="path54"
       style="fill:#006d00;fill-opacity:1;stroke-width:0.291835" />
    <g
       id="g56">
</g>
    <g
       id="g58">
</g>
    <g
       id="g60">
</g>
    <g
       id="g62">
</g>
    <g
       id="g64">
</g>
    <g
       id="g66">
</g>
    <g
       id="g68">
</g>
    <g
       id="g70">
</g>
    <g
       id="g72">
</g>
    <g
       id="g74">
</g>
    <g
       id="g76">
</g>
    <g
       id="g78">
</g>
    <g
       id="g80">
</g>
    <g
       id="g82">
</g>
    <g
       id="g84">
</g>
  </g>
  <g
     id="g1220"
     transform="matrix(1.294627,0,0,1.834308,-91.179846,-265.12077)">
    <path
       d="m 188.25096,166.55627 c 1.85579,1.14807 4.04776,1.82717 6.32699,1.82717 6.52135,0 11.82662,-5.30556 11.82662,-11.82662 0,-6.34625 -5.02511,-11.53916 -11.30482,-11.81348 -0.0429,-0.004 -45.38358,-0.004 -45.42647,0 -6.28,0.27403 -11.30511,5.46694 -11.30511,11.81319 0,6.52135 5.30556,11.82662 11.82662,11.82662 2.27865,0 4.46974,-0.67881 6.32523,-1.82601 0.57871,0.29796 1.52133,0.97006 2.05715,2.34081 v 67.48629 c -2.62331,0.0989 -4.72861,2.25793 -4.72861,4.90517 0,2.2159 1.47494,4.09182 3.49415,4.70292 0.15058,0.10098 0.32014,0.17539 0.50604,0.20691 0.13482,0.1897 0.37091,0.7363 0.37091,1.59372 0,0.83464 -0.22295,1.37162 -0.35924,1.57474 h -2.15112 c -2.70998,0 -4.9145,2.20481 -4.9145,4.9145 v 3.03421 c 0,0.82619 0.20691,1.60393 0.56849,2.28799 h -5.24807 c -0.72521,0 -1.31326,0.58805 -1.31326,1.31326 v 6.67018 c 0,0.72521 0.58805,1.31326 1.31326,1.31326 h 52.54288 c 0.72521,0 1.31326,-0.58805 1.31326,-1.31326 v -6.67018 c 0,-0.72521 -0.58805,-1.31326 -1.31326,-1.31326 h -5.24807 c 0.36158,-0.68406 0.56849,-1.4618 0.56849,-2.28799 v -3.03421 c 0,-2.70969 -2.20452,-4.9145 -4.9145,-4.9145 h -2.15316 c -0.13629,-0.20283 -0.35925,-0.7401 -0.35925,-1.57474 0,-0.85742 0.23609,-1.40402 0.37121,-1.59372 0.18532,-0.0315 0.35458,-0.10564 0.50488,-0.20603 2.02066,-0.61023 3.49676,-2.48732 3.49676,-4.7041 0,-2.64694 -2.10529,-4.80593 -4.7286,-4.90487 v -67.486 c 0.53581,-1.37483 1.4764,-2.04518 2.0551,-2.34197 z m -4.53628,-19.19955 c -0.34086,0.19961 -0.6864,0.40769 -1.04039,0.63182 -4.12918,2.61164 -6.41629,3.03479 -10.28748,3.03538 -3.8712,-5.9e-4 -6.1586,-0.42374 -10.28778,-3.03538 -0.35399,-0.22413 -0.69953,-0.43221 -1.04039,-0.63182 z m 13.62986,118.91816 h -49.91635 v -4.04367 h 49.91635 z m -8.28082,-14.28037 c 1.26161,0 2.28799,1.02638 2.28799,2.28798 v 3.03421 c 0,1.26161 -1.02638,2.28799 -2.28799,2.28799 h -33.35471 c -1.26161,0 -2.28799,-1.02638 -2.28799,-2.28799 v -3.03421 c 0,-1.2616 1.02638,-2.28798 2.28799,-2.28798 z m -4.95652,-2.62652 h -23.44458 c 0.11761,-0.47977 0.18298,-1.008 0.18298,-1.57474 0,-0.57229 -0.0665,-1.10547 -0.18619,-1.58934 h 23.45216 c -0.11994,0.48387 -0.18706,1.01676 -0.18706,1.58934 2.9e-4,0.56674 0.0654,1.09497 0.18269,1.57474 z m 4.19046,-8.07858 c 0,1.2616 -1.02639,2.28799 -2.28799,2.28799 h -27.2466 c -1.26161,0 -2.28799,-1.02639 -2.28799,-2.2877 0,-1.2616 1.02638,-2.28798 2.28799,-2.28798 h 27.2466 c 1.2616,0 2.28799,1.02638 2.28799,2.28769 z m -10.57844,-69.82769 c -2.05131,0 -3.72032,1.66901 -3.72032,3.72002 v 61.19375 h -3.22449 v -61.19375 c 0,-2.05101 -1.669,-3.72002 -3.72031,-3.72002 -2.05131,0 -3.72031,1.66901 -3.72031,3.72002 v 61.19375 h -2.13011 v -66.33063 h 22.36538 v 66.33034 h -2.12953 v -61.19346 c 0,-2.05131 -1.669,-3.72002 -3.72031,-3.72002 z m 1.09379,3.72002 v 61.19375 h -2.18759 v -61.19375 c 0,-0.60293 0.49057,-1.09351 1.0938,-1.09351 0.60322,0 1.09379,0.49029 1.09379,1.09351 z m -10.66511,0 v 61.19375 h -2.18759 v -61.19375 c 0,-0.60293 0.49057,-1.09351 1.09379,-1.09351 0.60323,0 1.0938,0.49029 1.0938,1.09351 z m -7.34987,-7.7634 c -0.18211,-0.38055 -0.38522,-0.72345 -0.60147,-1.03105 h 24.37932 c -0.21624,0.30788 -0.41965,0.6505 -0.60147,1.03105 z m -1.13903,-3.65757 c 0.88397,-1.13115 1.54089,-2.41405 1.88963,-3.78656 h 21.67606 c 0.34874,1.37251 1.00537,2.6557 1.88963,3.78656 z m 25.95261,-5.25974 c 0,-6.4e-4 -3e-4,-10e-4 -3e-4,-0.003 0,-6.3e-4 0,-0.002 0,-0.003 -0.25243,-1.99235 0.82823,-4.38599 1.95589,-5.28805 2.26784,-1.81405 5.37881,-1.66463 7.39772,0.3537 1.4764,1.47669 1.4764,3.87849 0,5.35518 -1.07833,1.07833 -2.83371,1.07833 -3.91204,0 -0.76053,-0.76052 -0.76053,-1.9982 0,-2.75872 0.50575,-0.50546 1.3293,-0.50546 1.83505,0 0.51305,0.51304 1.34449,0.51304 1.85724,0 0.51276,-0.51275 0.51276,-1.34419 0,-1.85695 -1.53009,-1.53038 -4.01945,-1.53038 -5.54983,0 -1.78457,1.78457 -1.78457,4.68834 0,6.47291 1.01851,1.01851 2.37291,1.57941 3.81342,1.57941 1.44049,0 2.7949,-0.5609 3.8134,-1.57941 2.50045,-2.50016 2.50045,-6.56892 -2.9e-4,-9.06936 -2.98226,-2.98168 -7.56466,-3.21194 -10.89566,-0.54748 -1.6337,1.30712 -2.78966,3.82537 -2.95367,6.19098 H 161.7999 c -0.1643,-2.3659 -1.32026,-4.88415 -2.95396,-6.19098 -3.331,-2.66505 -7.9131,-2.4345 -10.89566,0.54777 -2.50044,2.50015 -2.50044,6.56891 0,9.06907 1.0185,1.01851 2.37291,1.57941 3.81341,1.57941 1.4405,0 2.79491,-0.5609 3.81341,-1.57941 1.78457,-1.78457 1.78457,-4.68804 0,-6.47291 -1.53009,-1.53038 -4.01944,-1.53038 -5.54983,0 -0.51275,0.51276 -0.51275,1.34449 0,1.85695 0.51305,0.51304 1.34449,0.51304 1.85724,0 0.50575,-0.50546 1.32931,-0.50546 1.83506,0 0.76052,0.76082 0.76052,1.9982 0,2.75872 -1.07833,1.07833 -2.83372,1.07833 -3.91205,0 -1.47639,-1.47669 -1.47639,-3.87849 0,-5.35489 2.01921,-2.0192 5.13046,-2.16804 7.39773,-0.35429 1.12765,0.90207 2.20832,3.296 1.95646,5.28864 -2.9e-4,6.4e-4 0,0.002 -2.9e-4,0.003 0,6.4e-4 -2.9e-4,0.001 -2.9e-4,0.003 -0.48241,3.93336 -4.58882,7.2559 -8.96664,7.2559 -5.07297,0 -9.2001,-4.12742 -9.2001,-9.2001 0,-5.06918 4.1213,-9.19369 9.18901,-9.19982 h 2.88013 c 2.2979,0.0878 4.65214,0.96744 7.6309,2.85123 4.62121,2.92331 7.4523,3.44074 11.68216,3.44249 h 0.0192 c 4.22986,-0.002 7.06095,-0.51918 11.68216,-3.44249 2.97818,-1.88408 5.33241,-2.76367 7.63032,-2.85123 h 2.88013 c 5.06771,0.006 9.18901,4.13064 9.18901,9.19982 0,5.07297 -4.12714,9.2001 -9.2001,9.2001 -4.37724,0 -8.48336,-3.32283 -8.96577,-7.2559 z"
       id="path1188"
       style="fill:#006d00;fill-opacity:1;stroke-width:0.291835" />
    <g
       id="g1190">
</g>
    <g
       id="g1192">
</g>
    <g
       id="g1194">
</g>
    <g
       id="g1196">
</g>
    <g
       id="g1198">
</g>
    <g
       id="g1200">
</g>
    <g
       id="g1202">
</g>
    <g
       id="g1204">
</g>
    <g
       id="g1206">
</g>
    <g
       id="g1208">
</g>
    <g
       id="g1210">
</g>
    <g
       id="g1212">
</g>
    <g
       id="g1214">
</g>
    <g
       id="g1216">
</g>
    <g
       id="g1218">
</g>
  </g>
  <g
     id="g1254"
     transform="matrix(1.294627,0,0,1.834308,-3.91255,-265.99783)">
    <path
       d="m 188.25096,166.55627 c 1.85579,1.14807 4.04776,1.82717 6.32699,1.82717 6.52135,0 11.82662,-5.30556 11.82662,-11.82662 0,-6.34625 -5.02511,-11.53916 -11.30482,-11.81348 -0.0429,-0.004 -45.38358,-0.004 -45.42647,0 -6.28,0.27403 -11.30511,5.46694 -11.30511,11.81319 0,6.52135 5.30556,11.82662 11.82662,11.82662 2.27865,0 4.46974,-0.67881 6.32523,-1.82601 0.57871,0.29796 1.52133,0.97006 2.05715,2.34081 v 67.48629 c -2.62331,0.0989 -4.72861,2.25793 -4.72861,4.90517 0,2.2159 1.47494,4.09182 3.49415,4.70292 0.15058,0.10098 0.32014,0.17539 0.50604,0.20691 0.13482,0.1897 0.37091,0.7363 0.37091,1.59372 0,0.83464 -0.22295,1.37162 -0.35924,1.57474 h -2.15112 c -2.70998,0 -4.9145,2.20481 -4.9145,4.9145 v 3.03421 c 0,0.82619 0.20691,1.60393 0.56849,2.28799 h -5.24807 c -0.72521,0 -1.31326,0.58805 -1.31326,1.31326 v 6.67018 c 0,0.72521 0.58805,1.31326 1.31326,1.31326 h 52.54288 c 0.72521,0 1.31326,-0.58805 1.31326,-1.31326 v -6.67018 c 0,-0.72521 -0.58805,-1.31326 -1.31326,-1.31326 h -5.24807 c 0.36158,-0.68406 0.56849,-1.4618 0.56849,-2.28799 v -3.03421 c 0,-2.70969 -2.20452,-4.9145 -4.9145,-4.9145 h -2.15316 c -0.13629,-0.20283 -0.35925,-0.7401 -0.35925,-1.57474 0,-0.85742 0.23609,-1.40402 0.37121,-1.59372 0.18532,-0.0315 0.35458,-0.10564 0.50488,-0.20603 2.02066,-0.61023 3.49676,-2.48732 3.49676,-4.7041 0,-2.64694 -2.10529,-4.80593 -4.7286,-4.90487 v -67.486 c 0.53581,-1.37483 1.4764,-2.04518 2.0551,-2.34197 z m -4.53628,-19.19955 c -0.34086,0.19961 -0.6864,0.40769 -1.04039,0.63182 -4.12918,2.61164 -6.41629,3.03479 -10.28748,3.03538 -3.8712,-5.9e-4 -6.1586,-0.42374 -10.28778,-3.03538 -0.35399,-0.22413 -0.69953,-0.43221 -1.04039,-0.63182 z m 13.62986,118.91816 h -49.91635 v -4.04367 h 49.91635 z m -8.28082,-14.28037 c 1.26161,0 2.28799,1.02638 2.28799,2.28798 v 3.03421 c 0,1.26161 -1.02638,2.28799 -2.28799,2.28799 h -33.35471 c -1.26161,0 -2.28799,-1.02638 -2.28799,-2.28799 v -3.03421 c 0,-1.2616 1.02638,-2.28798 2.28799,-2.28798 z m -4.95652,-2.62652 h -23.44458 c 0.11761,-0.47977 0.18298,-1.008 0.18298,-1.57474 0,-0.57229 -0.0665,-1.10547 -0.18619,-1.58934 h 23.45216 c -0.11994,0.48387 -0.18706,1.01676 -0.18706,1.58934 2.9e-4,0.56674 0.0654,1.09497 0.18269,1.57474 z m 4.19046,-8.07858 c 0,1.2616 -1.02639,2.28799 -2.28799,2.28799 h -27.2466 c -1.26161,0 -2.28799,-1.02639 -2.28799,-2.2877 0,-1.2616 1.02638,-2.28798 2.28799,-2.28798 h 27.2466 c 1.2616,0 2.28799,1.02638 2.28799,2.28769 z m -10.57844,-69.82769 c -2.05131,0 -3.72032,1.66901 -3.72032,3.72002 v 61.19375 h -3.22449 v -61.19375 c 0,-2.05101 -1.669,-3.72002 -3.72031,-3.72002 -2.05131,0 -3.72031,1.66901 -3.72031,3.72002 v 61.19375 h -2.13011 v -66.33063 h 22.36538 v 66.33034 h -2.12953 v -61.19346 c 0,-2.05131 -1.669,-3.72002 -3.72031,-3.72002 z m 1.09379,3.72002 v 61.19375 h -2.18759 v -61.19375 c 0,-0.60293 0.49057,-1.09351 1.0938,-1.09351 0.60322,0 1.09379,0.49029 1.09379,1.09351 z m -10.66511,0 v 61.19375 h -2.18759 v -61.19375 c 0,-0.60293 0.49057,-1.09351 1.09379,-1.09351 0.60323,0 1.0938,0.49029 1.0938,1.09351 z m -7.34987,-7.7634 c -0.18211,-0.38055 -0.38522,-0.72345 -0.60147,-1.03105 h 24.37932 c -0.21624,0.30788 -0.41965,0.6505 -0.60147,1.03105 z m -1.13903,-3.65757 c 0.88397,-1.13115 1.54089,-2.41405 1.88963,-3.78656 h 21.67606 c 0.34874,1.37251 1.00537,2.6557 1.88963,3.78656 z m 25.95261,-5.25974 c 0,-6.4e-4 -3e-4,-10e-4 -3e-4,-0.003 0,-6.3e-4 0,-0.002 0,-0.003 -0.25243,-1.99235 0.82823,-4.38599 1.95589,-5.28805 2.26784,-1.81405 5.37881,-1.66463 7.39772,0.3537 1.4764,1.47669 1.4764,3.87849 0,5.35518 -1.07833,1.07833 -2.83371,1.07833 -3.91204,0 -0.76053,-0.76052 -0.76053,-1.9982 0,-2.75872 0.50575,-0.50546 1.3293,-0.50546 1.83505,0 0.51305,0.51304 1.34449,0.51304 1.85724,0 0.51276,-0.51275 0.51276,-1.34419 0,-1.85695 -1.53009,-1.53038 -4.01945,-1.53038 -5.54983,0 -1.78457,1.78457 -1.78457,4.68834 0,6.47291 1.01851,1.01851 2.37291,1.57941 3.81342,1.57941 1.44049,0 2.7949,-0.5609 3.8134,-1.57941 2.50045,-2.50016 2.50045,-6.56892 -2.9e-4,-9.06936 -2.98226,-2.98168 -7.56466,-3.21194 -10.89566,-0.54748 -1.6337,1.30712 -2.78966,3.82537 -2.95367,6.19098 H 161.7999 c -0.1643,-2.3659 -1.32026,-4.88415 -2.95396,-6.19098 -3.331,-2.66505 -7.9131,-2.4345 -10.89566,0.54777 -2.50044,2.50015 -2.50044,6.56891 0,9.06907 1.0185,1.01851 2.37291,1.57941 3.81341,1.57941 1.4405,0 2.79491,-0.5609 3.81341,-1.57941 1.78457,-1.78457 1.78457,-4.68804 0,-6.47291 -1.53009,-1.53038 -4.01944,-1.53038 -5.54983,0 -0.51275,0.51276 -0.51275,1.34449 0,1.85695 0.51305,0.51304 1.34449,0.51304 1.85724,0 0.50575,-0.50546 1.32931,-0.50546 1.83506,0 0.76052,0.76082 0.76052,1.9982 0,2.75872 -1.07833,1.07833 -2.83372,1.07833 -3.91205,0 -1.47639,-1.47669 -1.47639,-3.87849 0,-5.35489 2.01921,-2.0192 5.13046,-2.16804 7.39773,-0.35429 1.12765,0.90207 2.20832,3.296 1.95646,5.28864 -2.9e-4,6.4e-4 0,0.002 -2.9e-4,0.003 0,6.4e-4 -2.9e-4,0.001 -2.9e-4,0.003 -0.48241,3.93336 -4.58882,7.2559 -8.96664,7.2559 -5.07297,0 -9.2001,-4.12742 -9.2001,-9.2001 0,-5.06918 4.1213,-9.19369 9.18901,-9.19982 h 2.88013 c 2.2979,0.0878 4.65214,0.96744 7.6309,2.85123 4.62121,2.92331 7.4523,3.44074 11.68216,3.44249 h 0.0192 c 4.22986,-0.002 7.06095,-0.51918 11.68216,-3.44249 2.97818,-1.88408 5.33241,-2.76367 7.63032,-2.85123 h 2.88013 c 5.06771,0.006 9.18901,4.13064 9.18901,9.19982 0,5.07297 -4.12714,9.2001 -9.2001,9.2001 -4.37724,0 -8.48336,-3.32283 -8.96577,-7.2559 z"
       id="path1222"
       style="fill:#006d00;fill-opacity:1;stroke-width:0.291835" />
    <g
       id="g1224">
</g>
    <g
       id="g1226">
</g>
    <g
       id="g1228">
</g>
    <g
       id="g1230">
</g>
    <g
       id="g1232">
</g>
    <g
       id="g1234">
</g>
    <g
       id="g1236">
</g>
    <g
       id="g1238">
</g>
    <g
       id="g1240">
</g>
    <g
       id="g1242">
</g>
    <g
       id="g1244">
</g>
    <g
       id="g1246">
</g>
    <g
       id="g1248">
</g>
    <g
       id="g1250">
</g>
    <g
       id="g1252">
</g>
  </g>
</svg>
